<svg width="28" height="28" viewBox="0 0 28 28" fill="none" xmlns="http://www.w3.org/2000/svg">
<path d="M1.4 1.40048C1.63188 1.16827 1.90727 0.984049 2.21041 0.858357C2.51355 0.732665 2.8385 0.667969 3.16666 0.667969C3.49483 0.667969 3.81977 0.732665 4.12292 0.858357C4.42606 0.984049 4.70145 1.16827 4.93333 1.40048L14 10.4638L23.0667 1.40048C23.2987 1.16848 23.5741 0.984447 23.8772 0.858889C24.1803 0.73333 24.5052 0.668706 24.8333 0.668706C25.1614 0.668706 25.4863 0.73333 25.7894 0.858889C26.0926 0.984447 26.368 1.16848 26.6 1.40048C26.832 1.63249 27.016 1.90791 27.1416 2.21104C27.2671 2.51416 27.3318 2.83905 27.3318 3.16715C27.3318 3.49525 27.2671 3.82014 27.1416 4.12326C27.016 4.42639 26.832 4.70181 26.6 4.93382L17.5367 14.0005L26.6 23.0672C27.0685 23.5357 27.3318 24.1712 27.3318 24.8338C27.3318 25.4964 27.0685 26.1319 26.6 26.6005C26.1314 27.069 25.496 27.3323 24.8333 27.3323C24.1707 27.3323 23.5352 27.069 23.0667 26.6005L14 17.5371L4.93333 26.6005C4.46478 27.069 3.82929 27.3323 3.16666 27.3323C2.50403 27.3323 1.86854 27.069 1.4 26.6005C0.931446 26.1319 0.668218 25.4964 0.668218 24.8338C0.668218 24.1712 0.931446 23.5357 1.4 23.0672L10.4633 14.0005L1.4 4.93382C1.16778 4.70193 0.983561 4.42655 0.857869 4.1234C0.732177 3.82026 0.66748 3.49532 0.66748 3.16715C0.66748 2.83898 0.732177 2.51404 0.857869 2.2109C0.983561 1.90775 1.16778 1.63237 1.4 1.40048Z" fill="#FF0000"/>
</svg>
