<svg width="34" height="31" viewBox="0 0 34 31" fill="none" xmlns="http://www.w3.org/2000/svg">
<path d="M32.7865 24.1707L20.4888 2.81402C20.1326 2.20485 19.6231 1.69956 19.011 1.34841C18.3989 0.997264 17.7056 0.8125 16.9999 0.8125C16.2942 0.8125 15.6009 0.997264 14.9888 1.34841C14.3767 1.69956 13.8672 2.20485 13.511 2.81402L1.21333 24.1707C0.867703 24.7619 0.685547 25.4343 0.685547 26.1191C0.685547 26.8039 0.867703 27.4763 1.21333 28.0675C1.56558 28.6797 2.07436 29.1871 2.68748 29.5378C3.30059 29.8885 3.99596 30.0697 4.70224 30.0629H29.2976C30.0034 30.0692 30.6981 29.8877 31.3107 29.5371C31.9233 29.1864 32.4316 28.6792 32.7836 28.0675C33.1297 27.4766 33.3123 26.8043 33.3128 26.1195C33.3133 25.4347 33.1317 24.7621 32.7865 24.1707ZM29.8615 26.3786C29.8043 26.476 29.7218 26.5562 29.6228 26.6107C29.5238 26.6651 29.4119 26.6918 29.299 26.6879H4.70224C4.5893 26.6918 4.47742 26.6651 4.3784 26.6107C4.27939 26.5562 4.19693 26.476 4.13974 26.3786C4.09123 26.2997 4.06554 26.2089 4.06554 26.1163C4.06554 26.0237 4.09123 25.9329 4.13974 25.854L16.4374 4.4973C16.4978 4.40295 16.581 4.32531 16.6793 4.27154C16.7776 4.21776 16.8878 4.18958 16.9999 4.18958C17.1119 4.18958 17.2222 4.21776 17.3205 4.27154C17.4188 4.32531 17.502 4.40295 17.5624 4.4973L29.8601 25.854C29.9088 25.9328 29.9347 26.0235 29.935 26.1161C29.9352 26.2087 29.9098 26.2995 29.8615 26.3786Z" fill="#053766"/>
</svg>
