<svg width="372" height="296" viewBox="0 0 372 296" fill="none" xmlns="http://www.w3.org/2000/svg">
<path d="M371.34 295.41C371.34 295.56 288.208 295.67 185.679 295.67C83.1489 295.67 0 295.56 0 295.41C0 295.26 83.1144 295.15 185.679 295.15C288.243 295.15 371.34 295.27 371.34 295.41Z" fill="#263238"/>
<path d="M33.1698 171.25C27.8798 172.1 25.5098 178.6 25.9698 183.94C26.4298 189.28 28.6298 194.5 28.0398 199.83C27.2998 206.59 22.1798 212.31 21.5898 219.09C20.8898 227.09 26.5898 234.18 28.2298 242.03C29.0498 245.85 28.9398 249.88 30.3598 253.52C31.5708 256.616 33.818 259.197 36.7184 260.822C39.6188 262.447 42.993 263.016 46.2661 262.432C49.5391 261.849 52.5084 260.148 54.668 257.62C56.8277 255.092 58.044 251.894 58.1098 248.57C58.2198 242.43 54.4398 236.64 54.8998 230.52C55.2398 225.99 57.8998 221.7 57.3198 217.2C56.6398 211.84 51.6798 208.04 49.9298 202.93C48.1798 197.82 49.8598 192.19 49.2498 186.82C48.1698 177.19 42.7998 170.47 33.1698 171.25Z" fill="#A10000"/>
<path d="M6.10984 217.88C5.16984 226.8 9.16985 237.3 13.7498 245C18.4039 252.759 25.4095 258.833 33.7498 262.34C34.6798 262.73 35.8398 263.05 36.6298 262.42C36.9076 262.112 37.1164 261.749 37.2423 261.354C37.3682 260.959 37.4083 260.542 37.3598 260.13C37.4203 250.657 34.4101 241.42 28.78 233.801C23.15 226.183 15.2031 220.593 6.12984 217.87" fill="#A10000"/>
<g opacity="0.1">
<path d="M6.10984 217.88C5.16984 226.8 9.16985 237.3 13.7498 245C18.4039 252.759 25.4095 258.833 33.7498 262.34C34.6798 262.73 35.8398 263.05 36.6298 262.42C36.9076 262.112 37.1164 261.749 37.2423 261.354C37.3682 260.959 37.4083 260.542 37.3598 260.13C37.4203 250.657 34.4101 241.42 28.78 233.801C23.15 226.183 15.2031 220.593 6.12984 217.87" fill="black"/>
</g>
<path d="M44.9898 281C44.8827 280.848 44.7953 280.683 44.7298 280.51C44.5698 280.12 44.3498 279.64 44.0998 279.05C43.5598 277.77 42.7598 275.94 41.7398 273.68C39.7398 269.18 36.6798 263.05 32.8798 256.53C29.6187 250.976 26.0809 245.589 22.2798 240.39C20.8198 238.39 19.6098 236.8 18.7698 235.71L17.7698 234.43C17.5498 234.14 17.4398 233.98 17.4598 233.97C17.6008 234.092 17.7312 234.226 17.8498 234.37L18.8498 235.58C19.7498 236.64 20.9998 238.21 22.4998 240.18C26.3967 245.33 29.9862 250.706 33.2498 256.28C36.504 261.856 39.4258 267.619 41.9998 273.54C42.9998 275.81 43.7298 277.67 44.2098 278.97L44.7598 280.47C44.8534 280.639 44.9304 280.816 44.9898 281Z" fill="#263238"/>
<path d="M39.2399 195.93C39.2958 196.214 39.3293 196.501 39.3399 196.79C39.3799 197.397 39.4399 198.217 39.5199 199.25C39.6599 201.43 39.8599 204.51 40.0999 208.25C40.5799 215.89 41.2599 226.43 42.0999 238.08C42.9399 249.73 43.7299 260.26 44.3199 267.89C44.6099 271.67 44.8399 274.74 45.0099 276.89C45.0799 277.89 45.1299 278.74 45.1799 279.34C45.2043 279.626 45.2043 279.914 45.1799 280.2C45.1138 279.921 45.0703 279.637 45.0499 279.35C44.9899 278.75 44.8999 277.93 44.7899 276.9C44.5899 274.72 44.2999 271.65 43.9399 267.9C43.2599 260.28 42.3899 249.74 41.5699 238.09C40.7499 226.44 40.1699 216 39.7399 208.31C39.5699 204.52 39.4199 201.44 39.3199 199.26C39.3199 198.26 39.2599 197.4 39.2399 196.8C39.2202 196.511 39.2202 196.22 39.2399 195.93Z" fill="#263238"/>
<path d="M31.0298 268.28H53.3798V284.69C53.3798 287.533 52.2504 290.26 50.24 292.27C48.2296 294.28 45.5029 295.41 42.6598 295.41C39.9134 295.411 37.2711 294.36 35.2768 292.471C33.2826 290.583 32.0882 288.002 31.9398 285.26L31.0298 268.28Z" fill="#455A64"/>
<path d="M322.09 133.29C320.846 132.371 319.312 131.93 317.77 132.05C317.77 131.21 317.77 130.7 317.77 130.7H294.17C294.17 130.7 293.43 146.27 305.35 146.82C310.69 147.07 313.74 144.68 315.49 141.67C316.368 141.879 317.267 141.989 318.17 142C319.487 142.058 320.788 141.69 321.88 140.95C322.481 140.48 322.957 139.869 323.268 139.172C323.578 138.474 323.713 137.712 323.66 136.95C323.693 136.261 323.569 135.573 323.297 134.939C323.025 134.305 322.612 133.741 322.09 133.29ZM320.47 139.08C319.47 139.83 317.66 139.72 316.47 139.51C317.064 137.854 317.45 136.131 317.62 134.38C318.654 134.261 319.697 134.505 320.57 135.07C320.826 135.308 321.024 135.6 321.149 135.926C321.273 136.252 321.322 136.603 321.29 136.95C321.336 137.345 321.286 137.745 321.143 138.117C321 138.488 320.769 138.818 320.47 139.08Z" fill="#A10000"/>
<path d="M310.84 129.28C310.958 129.105 311.027 128.901 311.04 128.69C311.004 128.389 310.894 128.102 310.719 127.854C310.545 127.606 310.311 127.405 310.04 127.27C309.642 127.077 309.222 126.933 308.79 126.84C308.245 126.721 307.73 126.49 307.28 126.16C307.031 125.943 306.833 125.673 306.7 125.371C306.567 125.069 306.502 124.74 306.51 124.41C306.512 123.682 306.716 122.969 307.1 122.35C307.91 121.04 309.37 120.21 310.4 118.91C310.918 118.199 311.264 117.377 311.412 116.51C311.559 115.642 311.504 114.753 311.25 113.91C311.002 112.995 310.523 112.158 309.86 111.48C309.109 110.819 308.258 110.279 307.34 109.88C306.314 109.458 305.401 108.804 304.67 107.97C304.321 107.503 304.082 106.963 303.97 106.39C303.836 105.788 303.918 105.158 304.2 104.61C304.357 104.328 304.58 104.088 304.85 103.91L305.12 104.36C304.263 104.894 303.587 105.674 303.182 106.598C302.777 107.523 302.661 108.548 302.85 109.54C303.013 110.481 303.476 111.344 304.17 112C304.951 112.598 305.641 113.305 306.22 114.1C306.465 114.547 306.583 115.052 306.56 115.56C306.545 116.064 306.411 116.557 306.17 117C305.729 117.784 305.104 118.45 304.35 118.94C302.9 119.86 301.41 120.32 300.3 121.16C299.798 121.518 299.38 121.981 299.075 122.516C298.769 123.051 298.583 123.646 298.53 124.26C298.436 125.196 298.598 126.14 299 126.99C299.367 127.707 299.89 128.332 300.53 128.82L300.38 128.75C300.244 128.673 300.114 128.586 299.99 128.49C299.501 128.112 299.102 127.631 298.82 127.08C298.368 126.202 298.171 125.215 298.25 124.23C298.293 123.61 298.46 123.005 298.74 122.45C299.065 121.832 299.523 121.292 300.08 120.87C301.23 119.97 302.76 119.47 304.08 118.59C304.766 118.127 305.334 117.511 305.74 116.79C305.949 116.425 306.059 116.011 306.059 115.59C306.059 115.169 305.949 114.756 305.74 114.39C305.167 113.636 304.494 112.964 303.74 112.39C302.965 111.66 302.455 110.692 302.29 109.64C302.083 108.544 302.213 107.41 302.662 106.389C303.112 105.368 303.861 104.507 304.81 103.92L305.07 104.37C304.874 104.502 304.71 104.676 304.59 104.88C304.407 105.345 304.351 105.851 304.428 106.345C304.506 106.839 304.713 107.303 305.03 107.69C305.715 108.455 306.562 109.056 307.51 109.45C308.475 109.872 309.367 110.446 310.15 111.15C310.87 111.89 311.386 112.803 311.65 113.8C311.909 114.713 311.954 115.674 311.78 116.607C311.607 117.541 311.22 118.421 310.65 119.18C309.52 120.55 308.08 121.35 307.33 122.54C306.58 123.73 306.51 125.23 307.38 125.94C308.25 126.65 309.38 126.63 310.06 127.09C310.352 127.247 310.597 127.477 310.773 127.757C310.948 128.038 311.047 128.359 311.06 128.69C311.051 128.86 310.991 129.023 310.89 129.16C310.89 129.25 310.85 129.28 310.84 129.28Z" fill="#263238"/>
<path d="M163.73 5.81982H48.6599C46.876 5.81982 45.4299 7.26594 45.4299 9.04982V36.6598C45.4299 38.4437 46.876 39.8898 48.6599 39.8898H163.73C165.514 39.8898 166.96 38.4437 166.96 36.6598V9.04982C166.96 7.26594 165.514 5.81982 163.73 5.81982Z" fill="#455A64"/>
<path d="M71.0498 28.5397C70.1332 29.6801 68.8991 30.5233 67.5034 30.9626C66.1078 31.4018 64.6132 31.4175 63.2087 31.0076C61.8041 30.5976 60.5526 29.7806 59.6123 28.6595C58.672 27.5385 58.0851 26.1639 57.9258 24.7095C57.7665 23.255 58.042 21.786 58.7174 20.488C59.3928 19.1901 60.4378 18.1215 61.7204 17.4173C63.0029 16.7131 64.4655 16.405 65.9231 16.5317C67.3808 16.6585 68.7681 17.2146 69.9098 18.1297C70.6688 18.738 71.3003 19.4899 71.7684 20.3424C72.2365 21.195 72.532 22.1315 72.6379 23.0984C72.7437 24.0652 72.658 25.0434 72.3855 25.9771C72.113 26.9108 71.6591 27.7816 71.0498 28.5397Z" fill="white"/>
<path d="M69.4398 21.3896C68.2332 22.9266 66.8947 24.3553 65.4398 25.6597C65.0998 25.9797 64.7698 26.2897 64.4398 26.5997L64.2598 26.7796L64.0798 26.5997C62.9704 25.586 61.9654 24.4637 61.0798 23.2496C62.2939 24.1352 63.4162 25.1402 64.4298 26.2496H64.0698L65.0698 25.2496C66.4105 23.8374 67.8728 22.5457 69.4398 21.3896Z" fill="#A10000"/>
<path d="M155.11 20.3596C155.11 20.4996 139.66 20.6196 120.6 20.6196C101.54 20.6196 86.0999 20.4996 86.0999 20.3596C86.0999 20.2196 101.54 20.0996 120.6 20.0996C139.66 20.0996 155.11 20.2096 155.11 20.3596Z" fill="white"/>
<path d="M126.8 27.0999C126.8 27.2399 117.87 27.3598 106.86 27.3598C95.8499 27.3598 86.8599 27.2399 86.8599 27.0999C86.8599 26.9599 95.7899 26.8398 106.86 26.8398C117.93 26.8398 126.8 26.9999 126.8 27.0999Z" fill="white"/>
<path d="M163.73 44.79H48.6599C46.876 44.79 45.4299 46.2362 45.4299 48.0201V75.6301C45.4299 77.4139 46.876 78.86 48.6599 78.86H163.73C165.514 78.86 166.96 77.4139 166.96 75.6301V48.0201C166.96 46.2362 165.514 44.79 163.73 44.79Z" fill="#455A64"/>
<path d="M71.0498 67.5099C70.1332 68.6504 68.8991 69.4935 67.5034 69.9328C66.1078 70.372 64.6132 70.3877 63.2087 69.9778C61.8041 69.5679 60.5526 68.7508 59.6123 67.6298C58.672 66.5087 58.0851 65.1341 57.9258 63.6797C57.7665 62.2252 58.042 60.7562 58.7174 59.4582C59.3928 58.1603 60.4378 57.0917 61.7204 56.3875C63.0029 55.6833 64.4655 55.3752 65.9231 55.502C67.3808 55.6288 68.7681 56.1848 69.9098 57.0999C71.4403 58.33 72.42 60.1172 72.6337 62.069C72.8475 64.0209 72.2778 65.9777 71.0498 67.5099Z" fill="white"/>
<path d="M69.4398 60.3696C68.2344 61.9045 66.8959 63.33 65.4398 64.6296L64.4398 65.6296L64.2598 65.7996L64.0798 65.6196C62.9704 64.606 61.9654 63.4837 61.0798 62.2696C62.2918 63.1578 63.4138 64.1626 64.4298 65.2696H64.0698L65.0698 64.2696C66.4055 62.8401 67.8682 61.5348 69.4398 60.3696Z" fill="#A10000"/>
<path d="M155.11 59.3298C155.11 59.4798 139.66 59.5898 120.6 59.5898C101.54 59.5898 86.0999 59.4798 86.0999 59.3298C86.0999 59.1798 101.54 59.0698 120.6 59.0698C139.66 59.0698 155.11 59.1898 155.11 59.3298Z" fill="white"/>
<path d="M126.8 66.0696C126.8 66.2196 117.87 66.3296 106.86 66.3296C95.8499 66.3296 86.8599 66.2196 86.8599 66.0696C86.8599 65.9196 95.7899 65.8096 106.86 65.8096C117.93 65.8096 126.8 65.9296 126.8 66.0696Z" fill="white"/>
<path d="M163.73 83.77H48.6599C46.876 83.77 45.4299 85.2161 45.4299 87V114.61C45.4299 116.394 46.876 117.84 48.6599 117.84H163.73C165.514 117.84 166.96 116.394 166.96 114.61V87C166.96 85.2161 165.514 83.77 163.73 83.77Z" fill="#455A64"/>
<path d="M71.0498 106.49C70.1332 107.63 68.8991 108.473 67.5034 108.913C66.1078 109.352 64.6132 109.368 63.2087 108.958C61.8041 108.548 60.5526 107.731 59.6123 106.61C58.672 105.489 58.0851 104.114 57.9258 102.66C57.7665 101.205 58.042 99.7362 58.7174 98.4382C59.3928 97.1403 60.4378 96.0717 61.7204 95.3675C63.0029 94.6633 64.4655 94.3551 65.9231 94.4819C67.3808 94.6087 68.7681 95.1648 69.9098 96.0799C70.6688 96.6882 71.3003 97.4401 71.7684 98.2926C72.2365 99.1452 72.532 100.082 72.6379 101.049C72.7437 102.015 72.658 102.994 72.3855 103.927C72.113 104.861 71.6591 105.732 71.0498 106.49Z" fill="white"/>
<path d="M69.4398 99.3398C68.2391 100.882 66.9002 102.311 65.4398 103.61L64.4398 104.55L64.2598 104.73L64.0798 104.55C62.9704 103.536 61.9654 102.414 61.0798 101.2C62.2939 102.085 63.4162 103.09 64.4298 104.2H64.0698L65.0698 103.2C66.4105 101.788 67.8728 100.496 69.4398 99.3398Z" fill="#A10000"/>
<path d="M155.11 98.3098C155.11 98.4498 139.66 98.5698 120.6 98.5698C101.54 98.5698 86.0999 98.4498 86.0999 98.3098C86.0999 98.1698 101.54 98.0498 120.6 98.0498C139.66 98.0498 155.11 98.1698 155.11 98.3098Z" fill="white"/>
<path d="M126.8 105.05C126.8 105.19 117.87 105.31 106.86 105.31C95.8499 105.31 86.8599 105.19 86.8599 105.05C86.8599 104.91 95.7899 104.79 106.86 104.79C117.93 104.79 126.8 104.91 126.8 105.05Z" fill="white"/>
<path d="M235.84 212.78L233.93 295.41H230.29L230.52 212.99L235.84 212.78Z" fill="#263238"/>
<path d="M249.01 211.86L266.73 295.41H270.79L256.04 211.86H249.01Z" fill="#263238"/>
<path d="M215.79 212.78L196.18 295.41H192.12L209.91 212.44L215.79 212.78Z" fill="#263238"/>
<path d="M272.02 121.94C272.02 121.94 294.48 120.66 292.24 146.65C290 172.64 288.71 199 280.36 208C272.01 217 187.93 217.31 180.87 209.93C173.81 202.55 194.35 202.87 198.2 202.87C202.05 202.87 225.8 205.11 233.5 184.87C241.2 164.63 239.28 120.66 272.02 121.94Z" fill="#263238"/>
<path d="M273.46 122C273.46 122 290.63 125.52 289.03 143.49C287.43 161.46 282.93 192.92 274.58 200.94C266.23 208.96 233.58 210.71 215.85 209.61C195.31 208.32 182.35 204.41 182.35 204.41C182.35 204.41 178.6 206.82 179.73 208.41C180.86 210 190.88 216.21 239.43 215.17C287.98 214.13 284.61 206.97 286.62 199.17C288.63 191.37 292.87 149.63 292.28 140.46C291.69 131.29 287.07 123.56 273.46 122Z" fill="#455A64"/>
<path d="M225.22 45.7302C227.922 44.7987 230.856 44.7838 233.568 45.6876C236.279 46.5915 238.617 48.3637 240.22 50.7302C242.39 54.0902 242.9 58.3102 245.11 61.6402C246.68 63.9902 249 65.7202 250.92 67.8002C252.84 69.8802 254.41 72.6302 253.92 75.4202C253.46 78.0302 251.25 80.3502 251.69 82.9702C252.11 85.4202 254.69 87.0202 255.24 89.4602C255.83 92.3302 253.07 95.0102 250.17 95.4602C247.27 95.9102 244.39 94.7902 241.66 93.7102C238.93 92.6302 236.03 91.5502 233.14 92.0702C229.79 92.6802 227.22 95.3102 224.29 97.0702C221.201 98.8354 217.665 99.6628 214.113 99.4515C210.561 99.2402 207.148 97.9992 204.29 95.8802C202.09 94.1902 200.16 91.5702 200.7 88.8802C201.2 86.3402 203.7 84.5802 204.36 82.0902C205.42 78.3902 202.36 74.6102 202.81 70.7802C203.43 65.6402 209.81 63.2902 212.09 58.6502C213.2 56.4202 213.3 53.8202 214.27 51.5302C215.24 49.2402 217.8 47.2002 220.08 48.1802" fill="#263238"/>
<path d="M223.06 92.5104C223.39 90.6804 222.8 82.9804 222.8 82.9804C222.8 82.9804 215.98 82.1204 215.68 75.1504C215.38 68.1804 216.08 52.1504 216.08 52.1504L228.65 46.1504L239.65 58.6504L239.86 92.4404L223.06 92.5104Z" fill="#FFBE9D"/>
<path d="M216.97 64.4401C216.972 64.6108 217.024 64.7772 217.12 64.9185C217.216 65.0598 217.351 65.1697 217.509 65.2346C217.667 65.2995 217.841 65.3164 218.009 65.2833C218.176 65.2502 218.33 65.1686 218.452 65.0485C218.573 64.9284 218.656 64.7752 218.691 64.6081C218.726 64.4409 218.711 64.2672 218.648 64.1085C218.585 63.9498 218.477 63.8131 218.337 63.7156C218.197 63.6181 218.031 63.564 217.86 63.5601C217.626 63.56 217.401 63.6524 217.234 63.8172C217.068 63.9819 216.973 64.2058 216.97 64.4401Z" fill="#263238"/>
<path d="M216.41 62.8803C216.52 63.0003 217.18 62.4503 218.11 62.4103C219.04 62.3703 219.74 62.8503 219.84 62.7203C219.94 62.5903 219.78 62.4503 219.47 62.2303C219.064 61.9476 218.577 61.8071 218.083 61.8307C217.589 61.8542 217.117 62.0404 216.74 62.3603C216.45 62.6003 216.36 62.8303 216.41 62.8803Z" fill="#263238"/>
<path d="M227.17 64.4402C227.157 64.5616 227.17 64.6844 227.207 64.8006C227.245 64.9168 227.306 65.0238 227.388 65.1146C227.469 65.2055 227.569 65.2781 227.681 65.3279C227.792 65.3776 227.913 65.4033 228.035 65.4033C228.157 65.4033 228.278 65.3776 228.389 65.3279C228.501 65.2781 228.601 65.2055 228.682 65.1146C228.764 65.0238 228.825 64.9168 228.863 64.8006C228.9 64.6844 228.913 64.5616 228.9 64.4402C228.913 64.3188 228.9 64.196 228.863 64.0798C228.825 63.9636 228.764 63.8566 228.682 63.7657C228.601 63.6749 228.501 63.6022 228.389 63.5525C228.278 63.5028 228.157 63.4771 228.035 63.4771C227.913 63.4771 227.792 63.5028 227.681 63.5525C227.569 63.6022 227.469 63.6749 227.388 63.7657C227.306 63.8566 227.245 63.9636 227.207 64.0798C227.17 64.196 227.157 64.3188 227.17 64.4402Z" fill="#263238"/>
<path d="M226.77 63.06C226.88 63.18 227.54 62.63 228.47 62.59C229.4 62.55 230.1 63.03 230.2 62.9C230.3 62.77 230.14 62.63 229.83 62.41C229.427 62.1288 228.942 61.9882 228.45 62.01C227.956 62.0336 227.483 62.216 227.1 62.53C226.82 62.78 226.72 63 226.77 63.06Z" fill="#263238"/>
<path d="M223.26 71.1C222.767 70.9532 222.255 70.8757 221.74 70.8699C221.5 70.8699 221.27 70.81 221.23 70.64C221.208 70.3744 221.26 70.1078 221.38 69.8699C221.59 69.2499 221.82 68.5899 222.05 67.8699C222.677 66.1886 223.182 64.4641 223.56 62.71C222.804 64.326 222.172 65.9976 221.67 67.71C221.45 68.41 221.23 69.07 221.02 69.71C220.881 70.0241 220.846 70.3745 220.92 70.71C220.952 70.7983 221.005 70.8773 221.075 70.9401C221.145 71.0029 221.229 71.0475 221.32 71.07C221.453 71.0883 221.587 71.0883 221.72 71.07C222.229 71.1539 222.748 71.164 223.26 71.1Z" fill="#263238"/>
<path d="M222.8 83C226.028 82.8951 229.155 81.8526 231.8 80C231.8 80 229.68 85.08 222.88 84.67L222.8 83Z" fill="#EB996E"/>
<path d="M223.6 73.5601C223.657 73.2656 223.786 72.9896 223.974 72.7561C224.162 72.5225 224.404 72.3385 224.68 72.2201C224.87 72.1336 225.076 72.0889 225.285 72.0889C225.494 72.0889 225.7 72.1336 225.89 72.2201C226.073 72.3108 226.223 72.4552 226.322 72.634C226.42 72.8127 226.461 73.0172 226.44 73.2201C226.384 73.4535 226.258 73.6644 226.079 73.825C225.901 73.9856 225.678 74.0885 225.44 74.1201C224.975 74.1817 224.502 74.1477 224.05 74.0201C223.923 74.0004 223.801 73.9562 223.69 73.8901C223.636 73.8558 223.592 73.8062 223.566 73.7476C223.539 73.6889 223.53 73.6238 223.54 73.5601" fill="#EB996E"/>
<path d="M225.92 71.0704C225.98 71.0704 226.09 71.3204 226.06 71.7704C226.004 72.3731 225.73 72.9348 225.29 73.3504C224.854 73.7636 224.281 74.0021 223.68 74.0204C223.22 74.0204 222.96 73.9004 222.98 73.8404C223 73.7804 224.07 73.7804 224.93 72.9704C225.79 72.1604 225.77 71.0604 225.92 71.0704Z" fill="#263238"/>
<path d="M215.51 51.3601C215.761 53.3789 216.739 55.2371 218.261 56.5864C219.783 57.9358 221.746 58.6837 223.78 58.6901L221.89 54.5301C223.57 56.4801 225.31 58.5301 227.62 59.6501C229.93 60.7701 232.94 60.9501 234.9 59.2701C235.54 60.9801 235.53 62.8701 236.12 64.5901C236.71 66.3101 238.12 73.4301 239.88 73.1501C241.64 72.8701 242.71 65.7401 243.13 64.1501C243.635 61.8894 243.602 59.5417 243.034 57.2959C242.466 55.0502 241.379 52.9691 239.86 51.2201C238.07 49.1326 235.819 47.4895 233.285 46.4205C230.752 45.3514 228.004 44.8858 225.26 45.0601C222.813 45.168 220.453 45.9998 218.48 47.4501C216.794 48.7949 215.619 50.6756 215.15 52.7801" fill="#263238"/>
<path d="M206.17 82.7599C206.005 82.7491 205.843 82.712 205.69 82.6499C205.246 82.5153 204.817 82.3343 204.41 82.11C202.882 81.2947 201.619 80.0595 200.77 78.55C200.112 77.4354 199.713 76.1873 199.602 74.8978C199.491 73.6083 199.672 72.3104 200.13 71.1C200.672 69.6689 201.546 68.3871 202.68 67.36C203.896 66.2539 205.389 65.4972 207 65.17C207.748 65.0642 208.446 64.7328 209 64.22C209.467 63.6545 209.737 62.9525 209.77 62.22C209.89 60.75 209.31 59.32 209.15 57.88C208.975 56.4939 209.26 55.0889 209.96 53.88C210.575 52.8328 211.473 51.9802 212.55 51.42C213.55 50.91 214.44 50.58 215.21 50.24C215.884 49.9775 216.528 49.6422 217.13 49.24C217.622 48.8743 218.063 48.4438 218.44 47.96C218.384 48.1137 218.307 48.2585 218.21 48.39C217.937 48.7788 217.599 49.1172 217.21 49.39C216.614 49.8318 215.97 50.2042 215.29 50.5C214.52 50.86 213.61 51.2199 212.69 51.7299C211.687 52.2762 210.859 53.0941 210.3 54.09C209.652 55.2225 209.399 56.538 209.58 57.83C209.74 59.2 210.35 60.63 210.24 62.27C210.207 63.1219 209.89 63.9384 209.34 64.59C208.714 65.1826 207.922 65.5699 207.07 65.7C205.598 66.0101 204.227 66.6842 203.083 67.6608C201.939 68.6373 201.058 69.885 200.52 71.2899C200.078 72.4381 199.894 73.6697 199.983 74.8969C200.071 76.1241 200.428 77.3167 201.03 78.39C201.829 79.8655 203.01 81.0987 204.45 81.96C205.51 82.54 206.17 82.7099 206.17 82.7599Z" fill="#263238"/>
<path d="M251.44 91.92C251.44 91.92 252.03 91.52 253.06 90.78C254.551 89.7925 255.736 88.4068 256.48 86.78C256.935 85.6508 257.005 84.4032 256.68 83.23C256.5 82.5951 256.155 82.019 255.68 81.56C255.14 81.0866 254.542 80.6834 253.9 80.36C253.162 79.9634 252.539 79.3814 252.094 78.6713C251.649 77.9612 251.396 77.1475 251.36 76.31C251.29 74.5 252.41 73 252.81 71.39C253.151 69.7716 252.884 68.0842 252.06 66.65C251.298 65.2842 250.28 64.0788 249.06 63.1001C246.77 61.1801 244.38 59.7701 242.73 58.1001C241.37 56.8575 240.357 55.2826 239.79 53.53C239.653 53.051 239.573 52.5577 239.55 52.06C239.524 51.8877 239.524 51.7124 239.55 51.54C239.633 52.1928 239.767 52.8381 239.95 53.47C240.576 55.1512 241.606 56.6521 242.95 57.84C244.59 59.41 246.95 60.7601 249.33 62.7101C250.593 63.7219 251.649 64.9681 252.44 66.3801C253.336 67.9235 253.624 69.7452 253.25 71.4901C252.79 73.2401 251.72 74.6801 251.8 76.2701C251.825 77.0471 252.058 77.8031 252.475 78.4593C252.892 79.1154 253.477 79.6476 254.17 80C254.844 80.3473 255.472 80.7773 256.04 81.28C256.556 81.8034 256.928 82.4509 257.12 83.16C257.448 84.4213 257.357 85.7552 256.86 86.9601C256.439 87.9315 255.823 88.8062 255.05 89.53C254.469 90.0758 253.84 90.5678 253.17 91C252.63 91.35 252.17 91.6 251.9 91.75C251.755 91.8266 251.6 91.8837 251.44 91.92Z" fill="#263238"/>
<path d="M215.28 59.7003C216.247 58.897 216.927 57.8024 217.22 56.5803C217.505 55.3637 217.656 54.1196 217.67 52.8703C217.67 52.5103 217.67 52.0403 217.29 51.9503C216.91 51.8603 216.67 52.2002 216.51 52.5102C215.287 54.8254 214.855 57.4768 215.28 60.0603L215.5 59.8503" fill="#263238"/>
<path d="M197.83 290.46L197.64 281.46L214.48 281L214.89 294.15L213.89 294.25C209.25 294.63 190.27 295.87 187.14 295.01C183.61 294.06 197.83 290.46 197.83 290.46Z" fill="#A10000"/>
<g opacity="0.5">
<path d="M208.78 294.2C208.991 292.77 209.725 291.469 210.84 290.55C211.925 289.629 213.319 289.154 214.74 289.22L214.87 293.92L208.78 294.2Z" fill="white"/>
</g>
<g opacity="0.4">
<path d="M190.89 292.47C190.89 292.47 185.89 294.05 186.56 294.86C187.23 295.67 206.43 295.14 214.89 294.16V293.79L192.46 294.6C192.46 294.6 191.87 292.48 190.89 292.47Z" fill="white"/>
</g>
<path d="M215.17 293.77H214.88L214.05 293.84L210.99 294.06C208.41 294.22 204.84 294.4 200.89 294.52C196.94 294.64 193.37 294.65 190.78 294.63C193.37 294.63 196.94 294.56 200.89 294.45C204.84 294.34 208.4 294.18 210.99 294.06L214.05 293.9H214.88L215.17 293.77Z" fill="#263238"/>
<path d="M192.45 294.86C192.296 294.356 192.088 293.87 191.83 293.41C191.522 292.988 191.162 292.605 190.76 292.27C191.272 292.478 191.709 292.837 192.011 293.3C192.313 293.763 192.466 294.307 192.45 294.86Z" fill="#263238"/>
<path d="M197.35 292.2C197.3 292.2 197.05 291.95 196.8 291.57C196.55 291.19 196.37 290.86 196.42 290.82C196.47 290.78 196.71 291.08 196.97 291.46C197.147 291.677 197.277 291.929 197.35 292.2Z" fill="#263238"/>
<path d="M198.69 291.44C198.69 291.49 198.38 291.32 198.09 291.06C197.8 290.8 197.58 290.57 197.61 290.53C197.64 290.49 197.92 290.65 198.22 290.91C198.52 291.17 198.73 291.4 198.69 291.44Z" fill="#263238"/>
<path d="M199.51 289.83C199.232 289.945 198.93 289.993 198.63 289.97C198.335 290.005 198.036 289.981 197.75 289.9C198.323 289.737 198.926 289.713 199.51 289.83Z" fill="#263238"/>
<path d="M199.77 288.7C199.48 288.91 199.128 289.019 198.77 289.01C198.434 289.073 198.087 289.038 197.77 288.91C198.1 288.846 198.434 288.812 198.77 288.81C199.1 288.748 199.434 288.712 199.77 288.7Z" fill="#263238"/>
<path d="M196.73 290.75C196.372 290.809 196.007 290.809 195.65 290.75C195.258 290.711 194.869 290.638 194.49 290.53C194.262 290.47 194.041 290.386 193.83 290.28C193.7 290.207 193.601 290.09 193.55 289.95C193.53 289.87 193.534 289.786 193.56 289.708C193.587 289.63 193.635 289.561 193.7 289.51C194.105 289.296 194.572 289.228 195.022 289.318C195.471 289.407 195.877 289.648 196.17 290C196.341 290.208 196.467 290.45 196.54 290.71C196.562 290.809 196.562 290.911 196.54 291.01C196.419 290.679 196.244 290.372 196.02 290.1C195.77 289.819 195.443 289.617 195.08 289.52C194.651 289.389 194.188 289.432 193.79 289.64C193.63 289.78 193.7 289.98 193.89 290.09C194.088 290.191 194.296 290.271 194.51 290.33C194.876 290.446 195.25 290.533 195.63 290.59C196.32 290.73 196.73 290.71 196.73 290.75Z" fill="#263238"/>
<path d="M196.46 290.81C196.313 290.59 196.259 290.32 196.31 290.06C196.337 289.777 196.43 289.503 196.58 289.26C196.668 289.098 196.796 288.96 196.951 288.86C197.107 288.761 197.285 288.702 197.47 288.69C197.581 288.71 197.68 288.772 197.745 288.864C197.811 288.956 197.837 289.069 197.82 289.18C197.794 289.353 197.736 289.519 197.65 289.67C197.511 289.91 197.343 290.132 197.15 290.33C196.992 290.532 196.786 290.69 196.55 290.79C196.55 290.79 196.76 290.59 197.05 290.24C197.211 290.033 197.355 289.812 197.48 289.58C197.62 289.34 197.71 288.93 197.48 288.89C197.25 288.85 196.94 289.15 196.78 289.37C196.636 289.585 196.538 289.827 196.49 290.08C196.452 290.322 196.441 290.567 196.46 290.81Z" fill="#263238"/>
<path d="M214.65 289.17C214.65 289.17 214.17 289.17 213.41 289.25C212.418 289.383 211.485 289.796 210.72 290.441C209.955 291.086 209.389 291.936 209.09 292.89C208.86 293.62 208.84 294.1 208.81 294.1C208.78 294.1 208.81 293.98 208.81 293.76C208.828 293.452 208.882 293.146 208.97 292.85C209.243 291.852 209.811 290.96 210.6 290.29C211.396 289.628 212.37 289.217 213.4 289.11C213.709 289.075 214.021 289.075 214.33 289.11C214.439 289.114 214.547 289.134 214.65 289.17Z" fill="#263238"/>
<path d="M212.71 282.21C212.863 283.357 212.943 284.513 212.95 285.67C213.021 286.822 213.021 287.978 212.95 289.13C212.802 287.986 212.722 286.834 212.71 285.68C212.645 284.524 212.645 283.366 212.71 282.21Z" fill="#263238"/>
<path d="M206.62 292.61C205.822 292.829 204.997 292.933 204.17 292.92C203.345 292.987 202.515 292.946 201.7 292.8C201.7 292.74 202.81 292.8 204.16 292.72C205.51 292.64 206.61 292.55 206.62 292.61Z" fill="#263238"/>
<path d="M209.92 292.52C209.92 292.52 209.84 292.75 209.73 293.01C209.62 293.27 209.57 293.49 209.51 293.49C209.45 293.49 209.42 293.22 209.51 292.93C209.6 292.64 209.88 292.48 209.92 292.52Z" fill="#263238"/>
<path d="M211.17 290.94C211.17 290.94 211.11 291.15 210.94 291.33C210.77 291.51 210.6 291.63 210.56 291.59C210.52 291.55 210.62 291.38 210.79 291.19C210.96 291 211.08 290.9 211.17 290.94Z" fill="#263238"/>
<path d="M212.88 290.18C212.88 290.24 212.65 290.24 212.4 290.33C212.15 290.42 211.98 290.57 211.94 290.53C211.9 290.49 212.03 290.25 212.33 290.14C212.63 290.03 212.9 290.13 212.88 290.18Z" fill="#263238"/>
<path d="M214.17 289.81C214.17 289.86 214.1 289.95 213.96 290.01C213.82 290.07 213.69 290.07 213.67 290.01C213.65 289.95 213.74 289.87 213.88 289.81C214.02 289.75 214.17 289.76 214.17 289.81Z" fill="#263238"/>
<path d="M157.17 242.35L161.07 234.25L176.3 241.47L170.71 253.38L169.71 252.99C165.4 251.24 147.91 243.75 145.51 241.57C142.85 239.14 157.17 242.35 157.17 242.35Z" fill="#A10000"/>
<g opacity="0.5">
<path d="M165.24 250.64C166.075 249.465 167.314 248.639 168.72 248.32C170.105 247.996 171.561 248.203 172.8 248.9L170.8 253.16L165.24 250.64Z" fill="white"/>
</g>
<g opacity="0.4">
<path d="M150.06 241C150.06 241 144.91 240.16 145.12 241.17C145.33 242.18 162.71 250.41 170.7 253.37L170.84 253.02L150.48 243.59C150.48 243.59 150.93 241.46 150.06 241Z" fill="white"/>
</g>
<path d="M171.08 253.13C170.986 253.114 170.895 253.084 170.81 253.04L170.03 252.73L167.17 251.54C164.79 250.54 161.53 249.06 157.95 247.37C154.37 245.68 151.18 244.09 148.89 242.9L146.17 241.48L145.44 241.08L145.19 240.92L145.46 241.04L146.21 241.4L148.95 242.77C151.27 243.92 154.47 245.5 158.04 247.19C161.61 248.88 164.86 250.35 167.23 251.4L170.02 252.65L170.78 253L171.08 253.13Z" fill="#263238"/>
<path d="M150.37 243.84C150.465 243.326 150.502 242.803 150.48 242.28C150.386 241.763 150.239 241.257 150.04 240.77C150.424 241.175 150.651 241.703 150.68 242.26C150.778 242.807 150.667 243.371 150.37 243.84Z" fill="#263238"/>
<path d="M155.94 243.69C155.88 243.69 155.79 243.33 155.74 242.88C155.69 242.43 155.68 242.05 155.74 242.04C155.863 242.293 155.931 242.569 155.94 242.85C156 243.31 156 243.68 155.94 243.69Z" fill="#263238"/>
<path d="M157.48 243.62C157.43 243.62 157.27 243.37 157.11 243.01C156.95 242.65 156.88 242.34 156.94 242.32C157 242.3 157.15 242.57 157.3 242.93C157.45 243.29 157.53 243.6 157.48 243.62Z" fill="#263238"/>
<path d="M158.94 242.55C158.643 242.524 158.356 242.432 158.1 242.28C157.815 242.186 157.556 242.029 157.34 241.82C157.637 241.847 157.924 241.939 158.18 242.09C158.63 242.3 158.97 242.5 158.94 242.55Z" fill="#263238"/>
<path d="M159.69 241.67C159.346 241.682 159.003 241.624 158.682 241.501C158.36 241.377 158.067 241.19 157.82 240.95C158.443 241.192 159.066 241.432 159.69 241.67Z" fill="#263238"/>
<path d="M156.05 242.12C155.691 242.024 155.353 241.865 155.05 241.65C154.716 241.439 154.401 241.198 154.11 240.93C153.935 240.767 153.775 240.59 153.63 240.4C153.547 240.277 153.515 240.126 153.54 239.98C153.555 239.899 153.595 239.825 153.654 239.768C153.713 239.711 153.789 239.673 153.87 239.66C154.168 239.655 154.463 239.716 154.734 239.839C155.006 239.962 155.246 240.145 155.438 240.373C155.629 240.601 155.768 240.869 155.842 241.158C155.917 241.446 155.927 241.747 155.87 242.04C155.87 242.22 155.78 242.32 155.77 242.31C155.811 241.976 155.794 241.638 155.72 241.31C155.619 240.948 155.418 240.623 155.14 240.37C154.982 240.215 154.794 240.093 154.588 240.012C154.382 239.931 154.161 239.893 153.94 239.9C153.73 239.9 153.7 240.15 153.83 240.33C153.957 240.51 154.101 240.678 154.26 240.83C154.537 241.099 154.835 241.346 155.15 241.57C155.69 241.91 156.07 242.09 156.05 242.12Z" fill="#263238"/>
<path d="M155.78 242.05C155.752 241.787 155.823 241.523 155.98 241.31C156.137 241.07 156.345 240.869 156.59 240.72C156.741 240.614 156.917 240.549 157.101 240.529C157.285 240.51 157.47 240.538 157.64 240.61C157.729 240.679 157.788 240.78 157.805 240.892C157.822 241.004 157.795 241.118 157.73 241.21C157.633 241.352 157.507 241.471 157.36 241.56C157.127 241.718 156.875 241.846 156.61 241.94C156.377 242.039 156.123 242.084 155.87 242.07C155.87 242.07 156.14 241.99 156.56 241.8C156.803 241.694 157.034 241.564 157.25 241.41C157.48 241.27 157.75 240.94 157.52 240.78C157.381 240.736 157.233 240.723 157.088 240.742C156.943 240.761 156.804 240.811 156.68 240.89C156.458 241.019 156.261 241.189 156.1 241.39C155.968 241.597 155.861 241.818 155.78 242.05Z" fill="#263238"/>
<path d="M172.74 248.82C172.74 248.82 172.33 248.57 171.6 248.33C170.657 248.004 169.64 247.953 168.668 248.181C167.697 248.409 166.81 248.908 166.11 249.62C165.56 250.16 165.33 250.62 165.3 250.57C165.333 250.459 165.383 250.355 165.45 250.26C165.608 249.996 165.792 249.748 166 249.52C166.698 248.755 167.611 248.219 168.619 247.981C169.628 247.744 170.684 247.817 171.65 248.19C171.938 248.301 172.212 248.442 172.47 248.61C172.66 248.73 172.75 248.81 172.74 248.82Z" fill="#263238"/>
<path d="M174.17 241.74C173.783 242.829 173.332 243.894 172.82 244.93C172.37 245.992 171.859 247.027 171.29 248.03C171.677 246.941 172.128 245.876 172.64 244.84C173.085 243.776 173.596 242.741 174.17 241.74Z" fill="#263238"/>
<path d="M164.02 248.25C163.214 248.077 162.434 247.798 161.7 247.42C160.935 247.101 160.213 246.688 159.55 246.19C159.55 246.14 160.55 246.67 161.78 247.24C163.01 247.81 164.04 248.2 164.02 248.25Z" fill="#263238"/>
<path d="M167.01 249.66C167.01 249.72 166.83 249.83 166.62 250.01C166.41 250.19 166.26 250.37 166.21 250.34C166.16 250.31 166.21 250.06 166.49 249.86C166.77 249.66 167 249.61 167.01 249.66Z" fill="#263238"/>
<path d="M168.8 248.79C168.8 248.85 168.64 248.96 168.41 249.04C168.18 249.12 167.97 249.16 167.95 249.1C167.93 249.04 168.11 248.94 168.34 248.85C168.57 248.76 168.78 248.74 168.8 248.79Z" fill="#263238"/>
<path d="M170.71 248.92C170.71 248.92 170.47 248.86 170.21 248.84C169.95 248.82 169.73 248.84 169.71 248.84C169.69 248.84 169.91 248.64 170.24 248.68C170.57 248.72 170.75 248.88 170.71 248.92Z" fill="#263238"/>
<path d="M172 249.16C172 249.16 171.87 249.25 171.72 249.24C171.57 249.23 171.45 249.17 171.46 249.12C171.47 249.07 171.59 249.02 171.73 249.03C171.87 249.04 172 249.1 172 249.16Z" fill="#263238"/>
<path d="M268.17 124.66L264.59 106.66C261.99 92.0004 241.39 91.0004 241.39 91.0004L225.17 90.7304C225.17 90.7304 213.17 89.1204 205.78 97.4604C198.13 106.09 188.72 116.3 188.72 116.3L195.9 134.37L212.9 120.37C211.478 122.864 210.695 125.671 210.62 128.54C210.62 133.33 215.62 135.54 215.62 135.54L217.17 150.07L212.17 173.6L264.98 171.48C264.089 163.588 261.418 156.001 257.17 149.29L258.17 124.66H268.17Z" fill="#A10000"/>
<path d="M245.54 104.53C245.682 104.9 245.776 105.287 245.82 105.68C245.99 106.53 246.19 107.58 246.44 108.83C246.98 111.61 247.68 115.23 248.44 119.23C249.2 123.23 249.88 126.99 250.3 129.67C250.52 131.01 250.67 132.1 250.76 132.85C250.832 133.239 250.856 133.636 250.83 134.03C250.698 133.658 250.607 133.272 250.56 132.88C250.39 132.03 250.18 130.98 249.94 129.73C249.4 126.95 248.7 123.33 247.94 119.33C247.18 115.33 246.5 111.58 246.08 108.89C245.86 107.55 245.71 106.47 245.62 105.71C245.555 105.32 245.528 104.925 245.54 104.53Z" fill="#263238"/>
<path d="M268.48 123.72C265.235 123.998 261.976 124.098 258.72 124.02C255.465 124.116 252.207 124.04 248.96 123.79C252.206 123.519 255.464 123.422 258.72 123.5C261.975 123.404 265.233 123.477 268.48 123.72Z" fill="#263238"/>
<path d="M270.49 140C269.49 131.38 268.06 124 268.06 124H249.36C249.36 124 251.68 135 251.17 137.5C250.71 139.71 214.48 141.17 205.04 141.32C204.47 140.9 203.66 141.61 202.93 140.97C202.286 140.398 201.742 139.722 201.32 138.97C200.763 138.058 200.329 137.076 200.03 136.05C199.995 135.858 199.904 135.68 199.769 135.539C199.634 135.398 199.46 135.3 199.27 135.256C199.08 135.213 198.881 135.226 198.698 135.294C198.515 135.362 198.356 135.483 198.24 135.64C197.86 136.45 198.29 139.14 200.08 141.74C201.87 144.34 197.17 142.99 195.45 142.53C193.73 142.07 188.33 140.9 187.78 141.33C186.96 141.96 187.47 142.97 189.2 143.39C190.93 143.81 196.04 145.39 195.76 146.39C195.48 147.39 186.76 144.82 186.76 144.82C186.76 144.82 184.98 143.99 184.62 145.04C183.98 146.94 193.45 148.86 194.36 149.04C194.99 149.16 194.72 150.17 194.05 150.04C193.38 149.91 185.39 147.37 184.72 149.3C184.2 150.78 192.5 150.96 193.87 152.42C195.24 153.88 187.59 151.63 187.15 153.06C186.99 153.6 190.15 153.84 194.75 154.49C199.453 154.939 204.178 155.106 208.9 154.99C219.51 155.57 257.03 156.35 265.04 155.78C274.36 155.07 270.85 143 270.49 140Z" fill="#FFBE9D"/>
<path d="M211.07 125.17C211.216 124.347 211.43 123.537 211.71 122.75C211.93 122 212.2 121.12 212.54 120.15C212.71 119.67 212.9 119.15 213.11 118.64C213.23 118.36 213.38 118.12 213.45 117.89C213.529 117.638 213.563 117.374 213.55 117.11C213.501 116.552 213.418 115.998 213.3 115.45C213.2 114.91 213.1 114.39 213 113.88C212.84 112.88 212.68 112.02 212.54 111.2C212.355 110.383 212.254 109.548 212.24 108.71C212.547 109.49 212.768 110.302 212.9 111.13C213.08 111.94 213.27 112.83 213.47 113.78L213.8 115.36C213.936 115.932 214.027 116.514 214.07 117.1C214.087 117.422 214.043 117.744 213.94 118.05C213.835 118.32 213.715 118.584 213.58 118.84C213.37 119.34 213.17 119.84 212.99 120.32C212.66 121.23 212.34 122.08 212.06 122.86C211.827 123.668 211.495 124.444 211.07 125.17Z" fill="#263238"/>
<path d="M232.87 57C234.31 58.86 235.87 61 235.56 63.33C235.31 65.33 233.68 67.18 233.95 69.22C234.27 71.57 236.95 73.11 237.13 75.48C237.24 77.48 235.55 78.96 234.36 80.48C233.487 81.6039 232.844 82.889 232.468 84.2618C232.092 85.6346 231.991 87.068 232.17 88.48C232.367 89.8842 232.881 91.2253 233.673 92.4016C234.464 93.578 235.513 94.5588 236.74 95.27C237.984 95.9581 239.384 96.3124 240.805 96.2984C242.227 96.2844 243.62 95.9025 244.85 95.19C247.018 93.6775 248.597 91.4626 249.32 88.92C250.44 85.7 250.74 81.92 248.83 79.08C248.05 77.94 246.92 76.96 246.67 75.6C246.35 73.88 247.57 72.26 247.76 70.52C248.02 68.19 246.41 66.06 244.63 64.52C242.85 62.98 240.75 61.76 239.42 59.83" fill="#263238"/>
<g opacity="0.3">
<path d="M246.17 109.4C246.82 119.4 247.17 128.65 247.41 138.68C248.745 138.623 250.041 138.216 251.17 137.5C251.68 133.22 248.44 120.19 246.17 109.4Z" fill="black"/>
</g>
<path d="M221.79 104.79C221.645 104.027 221.725 103.238 222.02 102.52C222.36 101.3 222.89 100.41 223.02 100.47C222.977 101.223 222.808 101.963 222.52 102.66C222.391 103.404 222.144 104.123 221.79 104.79Z" fill="#FAFAFA"/>
<path d="M211.17 104.76C211.09 104.88 210.38 104.53 209.69 103.87C209 103.21 208.6 102.52 208.69 102.44C208.78 102.36 209.36 102.87 210.02 103.49C210.68 104.11 211.24 104.64 211.17 104.76Z" fill="#FAFAFA"/>
<path d="M201.02 113.06C201.02 113.06 200.93 112.97 200.87 112.79H201.1C201.256 113.606 201.256 114.444 201.1 115.26C201.04 116.193 200.691 117.085 200.1 117.81C200.218 116.919 200.395 116.037 200.63 115.17C200.81 114.17 200.85 113.23 200.91 112.8H201.14C201.08 113 201.06 113.05 201.02 113.06Z" fill="#FAFAFA"/>
<path d="M200.57 123.44C199.807 123.409 199.059 123.211 198.38 122.86C197.22 122.41 196.32 121.94 196.38 121.8C197.147 121.83 197.898 122.028 198.58 122.38C199.72 122.83 200.62 123.3 200.57 123.44Z" fill="#FAFAFA"/>
<path d="M209.17 117.69C209.03 117.69 209.05 116.79 209.38 115.76C209.71 114.73 210.17 113.99 210.3 114.05C210.43 114.11 210.18 114.92 209.87 115.91C209.56 116.9 209.27 117.71 209.17 117.69Z" fill="#FAFAFA"/>
<path d="M218.17 94.9303C218.17 95.0703 217.42 95.2204 216.48 95.2704C215.54 95.3204 214.78 95.2704 214.77 95.0904C214.76 94.9104 215.52 94.7904 216.46 94.7504C217.4 94.7104 218.17 94.7803 218.17 94.9303Z" fill="#FAFAFA"/>
<path d="M220 114.46C219.91 114.56 219.1 113.96 218.56 112.86C218.156 112.232 218.013 111.472 218.16 110.74C218.31 110.74 218.52 111.63 219.02 112.63C219.52 113.63 220.11 114.35 220 114.46Z" fill="#FAFAFA"/>
<path d="M237.76 110.27C237.86 110.37 237.23 111.17 236.28 111.99C235.33 112.81 234.44 113.31 234.36 113.19C234.28 113.07 235.01 112.39 235.94 111.59C236.87 110.79 237.66 110.17 237.76 110.27Z" fill="#FAFAFA"/>
<path d="M228.98 107.51C229.06 107.63 228.51 108.18 227.74 108.75C226.97 109.32 226.27 109.7 226.19 109.58C226.11 109.46 226.66 108.91 227.43 108.34C228.2 107.77 228.89 107.4 228.98 107.51Z" fill="#FAFAFA"/>
<path d="M233.29 100.33C232.478 100.16 231.735 99.7485 231.16 99.1501C230.16 98.2601 229.55 97.3001 229.67 97.2201C229.79 97.1401 230.51 97.9101 231.5 98.7501C232.49 99.5901 233.36 100.2 233.29 100.33Z" fill="#FAFAFA"/>
<path d="M243.4 97.53C243.48 97.64 242.92 98.22 242.13 98.81C241.34 99.4 240.63 99.81 240.54 99.69C240.45 99.57 241.02 99 241.81 98.4C242.6 97.8 243.31 97.41 243.4 97.53Z" fill="#FAFAFA"/>
<path d="M251.84 101.53C251.827 100.807 251.935 100.087 252.16 99.4001C252.39 98.2501 252.54 97.3001 252.69 97.3101C252.912 98.0233 252.912 98.787 252.69 99.5001C252.44 100.7 251.97 101.58 251.84 101.53Z" fill="#FAFAFA"/>
<path d="M253.33 111.16C253.23 111.26 252.33 110.59 251.33 109.65C250.33 108.71 249.56 107.87 249.66 107.77C249.76 107.67 250.66 108.33 251.66 109.27C252.66 110.21 253.43 111.05 253.33 111.16Z" fill="#FAFAFA"/>
<path d="M260.17 107.11C260.04 107.05 260.3 106.11 260.75 105.11C261.2 104.11 261.68 103.23 261.81 103.29C261.774 103.993 261.575 104.677 261.23 105.29C260.77 106.35 260.29 107.17 260.17 107.11Z" fill="#FAFAFA"/>
<path d="M260.52 118.68C260.691 117.843 261.031 117.05 261.52 116.35C261.857 115.573 262.342 114.87 262.95 114.28C262.78 115.114 262.44 115.904 261.95 116.6C261.615 117.381 261.129 118.088 260.52 118.68Z" fill="#FAFAFA"/>
<path d="M253.78 120.45C253.66 120.54 252.98 119.82 252.24 118.84C251.5 117.86 251.01 117.01 251.12 116.92C251.23 116.83 251.93 117.55 252.66 118.53C253.39 119.51 253.89 120.36 253.78 120.45Z" fill="#FAFAFA"/>
<path d="M241.06 125.4C241.301 124.352 241.769 123.369 242.43 122.52C242.953 121.583 243.677 120.774 244.55 120.15C244.083 121.092 243.52 121.984 242.87 122.81C242.356 123.733 241.749 124.601 241.06 125.4Z" fill="#FAFAFA"/>
<path d="M231.92 124.48C231.308 123.806 230.83 123.022 230.51 122.17C230.038 121.39 229.716 120.529 229.56 119.63C230.648 121.082 231.449 122.728 231.92 124.48Z" fill="#FAFAFA"/>
<path d="M220.41 121.8C219.837 122.636 219.127 123.37 218.31 123.97C217.608 124.701 216.786 125.306 215.88 125.76C215.78 125.65 216.72 124.68 217.97 123.58C218.675 122.85 219.5 122.248 220.41 121.8Z" fill="#FAFAFA"/>
<path d="M224.78 134.3C224.66 134.39 223.84 133.46 222.78 132.38C221.72 131.3 220.78 130.46 220.87 130.38C221.756 130.727 222.545 131.283 223.17 132C223.887 132.623 224.44 133.413 224.78 134.3Z" fill="#FAFAFA"/>
<path d="M232.84 134.68C232.897 133.765 233.205 132.883 233.73 132.13C234.48 130.83 235.39 129.99 235.49 130.13C235.131 130.931 234.689 131.692 234.17 132.4C233.806 133.204 233.361 133.968 232.84 134.68Z" fill="#FAFAFA"/>
<path d="M244.17 136C243.254 135.568 242.419 134.983 241.7 134.27C240.87 133.685 240.143 132.965 239.55 132.14C240.469 132.571 241.308 133.157 242.03 133.87C242.857 134.456 243.58 135.176 244.17 136Z" fill="#FAFAFA"/>
<path d="M243.17 106.22C242.386 106.094 241.654 105.747 241.06 105.22C240 104.45 239.35 103.6 239.45 103.5C239.55 103.4 240.35 104.06 241.37 104.8C242.39 105.54 243.17 106.09 243.17 106.22Z" fill="#FAFAFA"/>
<path d="M226.8 157.47C226.86 157.61 226.05 158.04 225.15 158.71C224.25 159.38 223.58 160.01 223.47 159.92C223.36 159.83 223.87 159 224.84 158.29C225.81 157.58 226.76 157.34 226.8 157.47Z" fill="#FAFAFA"/>
<path d="M238.9 162.41C238.028 161.06 237.465 159.534 237.25 157.94C238.118 159.293 238.681 160.818 238.9 162.41Z" fill="#FAFAFA"/>
<path d="M251.1 158.09C251.21 158.19 250.58 159.01 249.71 159.92C248.84 160.83 248.05 161.49 247.95 161.39C247.85 161.29 248.47 160.47 249.34 159.56C250.21 158.65 251 158 251.1 158.09Z" fill="#FAFAFA"/>
<path d="M260.17 164.67C260.06 164.78 259.25 164.14 258.05 163.91C256.85 163.68 255.86 163.91 255.81 163.78C256.145 163.538 256.532 163.377 256.94 163.311C257.348 163.245 257.766 163.276 258.16 163.4C259.48 163.67 260.24 164.59 260.17 164.67Z" fill="#FAFAFA"/>
<path d="M265.1 169.12C265.1 169.12 196.04 154.65 189.35 157.82C182.66 160.99 151.83 237.2 151.83 237.2L176.66 247.88L203.37 183.12C203.37 183.12 251.72 200.78 260.17 199C268.62 197.22 265.1 169.12 265.1 169.12Z" fill="#455A64"/>
<path d="M234.23 173.18C233.18 173.53 193.23 189.96 190.41 195.23C187.59 200.5 194.51 288.17 194.51 288.17H217.23L215.83 210.26L260.17 199L234.23 173.18Z" fill="#455A64"/>
<path d="M260.4 199.21C260.182 199.202 259.964 199.175 259.75 199.13L257.89 198.8C256.28 198.5 253.95 198.04 251.08 197.43C245.35 196.22 237.45 194.43 228.85 191.92C224.55 190.68 220.49 189.38 216.85 188.12C213.21 186.86 209.92 185.6 207.23 184.45C205.87 183.9 204.66 183.35 203.6 182.87C202.54 182.39 201.6 181.98 200.89 181.6L199.21 180.75C199.006 180.661 198.811 180.551 198.63 180.42C198.843 180.484 199.05 180.564 199.25 180.66L200.98 181.42C201.72 181.76 202.64 182.16 203.71 182.61C204.78 183.06 206 183.61 207.36 184.11C210.07 185.22 213.36 186.39 217.01 187.67C220.66 188.95 224.73 190.18 229.01 191.42C237.6 193.89 245.47 195.77 251.18 197.07L257.95 198.6L259.79 199.02C259.999 199.063 260.204 199.126 260.4 199.21Z" fill="#263238"/>
<path d="M190.42 215.37C190.308 214.941 190.238 214.503 190.21 214.06C190.11 213.11 189.98 211.9 189.83 210.46C189.68 209.02 189.52 207.11 189.34 205.13C189.034 202.937 189.034 200.713 189.34 198.52C189.783 196.304 190.947 194.296 192.65 192.81C194.005 191.603 195.54 190.614 197.2 189.88C198.3 189.379 199.425 188.935 200.57 188.55C200.983 188.385 201.412 188.261 201.85 188.18C201.85 188.27 200.09 188.9 197.36 190.18C195.76 190.933 194.283 191.924 192.98 193.12C191.376 194.556 190.278 196.471 189.85 198.58C189.57 200.728 189.57 202.903 189.85 205.05C190 207.05 190.13 208.84 190.24 210.39C190.35 211.94 190.4 213.05 190.45 214C190.491 214.457 190.481 214.916 190.42 215.37Z" fill="#263238"/>
<path d="M210.35 207.84C212.269 208.308 214.09 209.11 215.73 210.21C213.813 209.739 211.992 208.937 210.35 207.84Z" fill="#263238"/>
<path d="M212.36 205.44C213.007 206.262 213.612 207.116 214.17 208C215.17 209.37 216.24 210.32 216.17 210.44C215.191 209.966 214.364 209.228 213.78 208.31C213.045 207.508 212.552 206.512 212.36 205.44Z" fill="#263238"/>
<path d="M221.08 209C221.08 209 221.01 209.19 220.73 209.36C220.324 209.575 219.869 209.682 219.41 209.67C218.78 209.648 218.148 209.665 217.52 209.72C217.183 209.77 216.878 209.947 216.668 210.215C216.458 210.483 216.358 210.821 216.39 211.16C216.467 213.188 216.373 215.218 216.11 217.23C215.854 215.207 215.773 213.166 215.87 211.13C215.875 210.666 216.025 210.214 216.3 209.84C216.595 209.508 217 209.295 217.44 209.24C218.107 209.204 218.776 209.224 219.44 209.3C220.003 209.342 220.568 209.238 221.08 209Z" fill="#263238"/>
<path opacity="0.3" d="M215.63 157.37L262.7 161.15L260.69 155.88L216.09 155.24L215.63 157.37Z" fill="black"/>
<path d="M343.03 147.04H65.54V154.44H80.38L72.73 295.18L76.95 295.41L84.62 154.44H327.9L334.42 295.3H338.66L332.13 154.44H343.03V147.04Z" fill="#263238"/>
<path d="M146.47 103.28L161.86 148.24H231.54L231.02 145.93L202.85 145.05L189.87 103.25L146.47 103.28Z" fill="#263238"/>
<path d="M177.35 124.39C177.81 126.24 177.02 128.04 175.59 128.39C174.16 128.74 172.59 127.59 172.16 125.74C171.73 123.89 172.49 122.1 173.92 121.74C175.35 121.38 176.89 122.55 177.35 124.39Z" fill="white"/>
<path d="M273.015 5.93822C275.744 9.15042 277.168 13.2699 277.005 17.4818C276.843 21.6937 275.105 25.691 272.136 28.6831C269.167 31.6752 265.184 33.4441 260.973 33.6398C256.763 33.8354 252.632 32.4437 249.399 29.7398L244.471 31.4614C244.285 31.5262 244.083 31.5332 243.893 31.4816C243.702 31.4299 243.532 31.3219 243.404 31.1718C243.276 31.0217 243.196 30.8365 243.175 30.6403C243.155 30.4442 243.193 30.2463 243.287 30.0726L245.77 25.4774C243.596 21.8561 242.863 17.5492 243.719 13.4128C244.574 9.27637 246.955 5.61327 250.387 3.15158C253.82 0.689897 258.053 -0.390134 262.245 0.126161C266.438 0.642456 270.282 2.71727 273.015 5.93822ZM248.426 26.9238C250.419 29.2555 253.059 30.9437 256.012 31.7748C258.965 32.606 262.098 32.5426 265.015 31.5929C267.931 30.6432 270.501 28.8498 272.398 26.4394C274.296 24.0291 275.436 21.1102 275.674 18.0519C275.912 14.9936 275.238 11.9334 273.737 9.25835C272.235 6.58328 269.974 4.41357 267.24 3.02365C264.505 1.63374 261.42 1.08608 258.374 1.44994C255.328 1.81381 252.459 3.07286 250.128 5.06782C248.581 6.39064 247.309 8.0053 246.386 9.81961C245.463 11.6339 244.906 13.6123 244.747 15.6419C244.588 17.6714 244.831 19.7124 245.461 21.6481C246.091 23.5839 247.097 25.3766 248.42 26.9238H248.426Z" fill="#A10000"/>
<path d="M258.998 32.2941C250.459 31.6311 244.075 24.1716 244.738 15.6329C245.401 7.09423 252.86 0.709739 261.399 1.37275C269.938 2.03576 276.322 9.49522 275.659 18.0339C274.996 26.5726 267.537 32.9571 258.998 32.2941Z" fill="#A10000"/>
<path d="M253.733 7.99272C254.113 7.65667 254.515 7.34663 254.936 7.06472C255.386 6.76822 255.861 6.5133 256.357 6.30312C256.892 6.08017 257.447 5.90872 258.015 5.79112C258.647 5.66495 259.29 5.60277 259.935 5.60552C260.803 5.59542 261.668 5.72728 262.495 5.99592C263.224 6.2291 263.899 6.60795 264.479 7.10952C265.026 7.5905 265.463 8.18439 265.759 8.85032C266.066 9.57438 266.219 10.3549 266.207 11.1415C266.223 11.8677 266.104 12.5906 265.855 13.2727C265.637 13.8375 265.334 14.3662 264.959 14.8407C264.613 15.2704 264.218 15.6571 263.781 15.9927L262.578 16.9079C262.23 17.1659 261.9 17.4482 261.592 17.7527C261.33 18.0018 261.157 18.3301 261.099 18.6871L260.728 21.0551H257.983L257.707 18.4055C257.634 17.9479 257.711 17.4788 257.925 17.0679C258.145 16.6724 258.43 16.3174 258.77 16.0183C259.148 15.6803 259.55 15.3701 259.973 15.0903C260.402 14.7966 260.808 14.4714 261.189 14.1175C261.566 13.7671 261.888 13.3614 262.143 12.9143C262.409 12.4355 262.541 11.8939 262.527 11.3463C262.534 10.9866 262.46 10.6299 262.309 10.3031C262.164 9.99684 261.957 9.72429 261.701 9.50312C261.423 9.27668 261.107 9.10313 260.767 8.99112C260.385 8.87327 259.988 8.81498 259.589 8.81832C259.059 8.80589 258.531 8.87276 258.021 9.01672C257.644 9.13124 257.279 9.28347 256.933 9.47112C256.639 9.63752 256.389 9.79112 256.178 9.92552C256.018 10.0457 255.827 10.1169 255.627 10.1303C255.454 10.1411 255.282 10.1007 255.132 10.0142C254.981 9.92774 254.86 9.79895 254.783 9.64392L253.733 7.99272ZM256.773 25.3303C256.773 25.0035 256.836 24.6798 256.959 24.3767C257.073 24.0838 257.248 23.8179 257.471 23.5959C257.94 23.1381 258.569 22.881 259.224 22.8791C259.557 22.8755 259.886 22.9431 260.191 23.0775C260.479 23.2 260.742 23.3759 260.965 23.5959C261.311 23.9426 261.547 24.3845 261.642 24.8655C261.736 25.3464 261.685 25.8446 261.496 26.2967C261.248 26.8707 260.79 27.3285 260.216 27.5767C259.91 27.7038 259.581 27.7669 259.25 27.7623C258.916 27.7669 258.585 27.7038 258.277 27.5767C257.984 27.462 257.718 27.2876 257.496 27.0647C257.273 26.8475 257.099 26.5858 256.984 26.2967C256.851 25.9917 256.779 25.6632 256.773 25.3303Z" fill="white"/>
</svg>
